<?xml version="1.0" encoding="utf-8"?>
<!-- Generator: Adobe Illustrator 22.1.0, SVG Export Plug-In . SVG Version: 6.00 Build 0)  -->
<svg version="1.1" id="Laag_1" xmlns="http://www.w3.org/2000/svg" xmlns:xlink="http://www.w3.org/1999/xlink" x="0px" y="0px"
	 viewBox="0 0 500 93.2" style="enable-background:new 0 0 500 93.2;" xml:space="preserve">
<style type="text/css">
	.st0{fill:#FFFFFF;}
	.st1{fill:#48DBFB;}
</style>
<g>
	<g>
		<path class="st1" d="M154.1,12.8l-29.1,67.2h-15.4l-29-67.2h16.8l20.4,48l20.7-48H154.1z"/>
	</g>
	<path class="st1" d="M78.1,67.4v12.5h-52V12.8h50.8v12.5H41.6v14.6h31.2v12.1H41.6v15.5H78.1z"/>
	<path class="st1" d="M264.2,79.9l-13-18.7h-0.8h-13.5v18.7h-15.5V12.8h29.1c5.9,0,11.1,1,15.5,3s7.8,4.8,10.1,8.4
		c2.4,3.6,3.5,8,3.5,13s-1.2,9.3-3.6,12.9c-2.4,3.6-5.8,6.4-10.2,8.3l15.1,21.6H264.2z M260.2,28.4c-2.4-2-6-3-10.6-3h-12.7v23.4
		h12.7c4.7,0,8.2-1,10.6-3.1c2.4-2,3.6-4.9,3.6-8.6C263.9,33.4,262.7,30.5,260.2,28.4z"/>
	<path class="st1" d="M291.9,12.8h15.5v54.5h33.7v12.7h-49.2V12.8z"/>
	<path class="st1" d="M349.9,12.8h15.5v67.2h-15.5V12.8z"/>
	<path class="st1" d="M442.9,12.8v67.2h-12.8l-33.5-40.8v40.8h-15.4V12.8h12.9l33.4,40.8V12.8H442.9z"/>
	<path class="st1" d="M458.8,12.8h15.5v67.2h-15.5V12.8z"/>
	<path class="st1" d="M143.6,67.4l-5.4,12.5H209V67.4C209,67.4,162.7,67.4,143.6,67.4z"/>
	<path class="st1" d="M155.6,39.8l-5.2,12.1c16.9,0,58.7,0,58.7,0V39.8C209,39.8,174.6,39.8,155.6,39.8z"/>
	<polygon class="st1" points="167.3,12.8 165.2,17.6 161.9,25.2 209,25.2 209,12.8 	"/>
</g>
</svg>
