<?xml version="1.0" encoding="utf-8"?>
<!-- Generator: Adobe Illustrator 22.1.0, SVG Export Plug-In . SVG Version: 6.00 Build 0)  -->
<svg version="1.1" id="Laag_1" xmlns="http://www.w3.org/2000/svg" xmlns:xlink="http://www.w3.org/1999/xlink" x="0px" y="0px"
	 viewBox="0 0 451 69" style="enable-background:new 0 0 451 69;" xml:space="preserve">
<style type="text/css">
	.st0{fill:#FFFFFF;}
	.st1{fill:#48DBFB;}
</style>
<g>
	<g>
		<path class="st0" d="M129.8,1.1l-29.1,67.2H85.4l-29-67.2h16.8l20.4,48l20.7-48H129.8z"/>
	</g>
	<path class="st0" d="M53.8,55.8v12.5h-52V1.1h50.8v12.5H17.3v14.6h31.2v12.1H17.3v15.5H53.8z"/>
	<path class="st0" d="M239.9,68.3l-13-18.7h-0.8h-13.5v18.7h-15.5V1.1h29.1c5.9,0,11.1,1,15.5,3s7.8,4.8,10.1,8.4
		c2.4,3.6,3.5,8,3.5,13s-1.2,9.3-3.6,12.9c-2.4,3.6-5.8,6.4-10.2,8.3l15.1,21.6H239.9z M235.9,16.8c-2.4-2-6-3-10.6-3h-12.7v23.4
		h12.7c4.7,0,8.2-1,10.6-3.1c2.4-2,3.6-4.9,3.6-8.6C239.6,21.7,238.3,18.8,235.9,16.8z"/>
	<path class="st0" d="M267.6,1.1h15.5v54.5h33.7v12.7h-49.2V1.1z"/>
	<path class="st0" d="M325.5,1.1h15.5v67.2h-15.5V1.1z"/>
	<path class="st0" d="M418.6,1.1v67.2h-12.8l-33.5-40.8v40.8H357V1.1h12.9l33.4,40.8V1.1H418.6z"/>
	<path class="st0" d="M434.5,1.1h15.5v67.2h-15.5V1.1z"/>
	<path class="st0" d="M119.3,55.8l-5.4,12.5h70.8V55.8C184.7,55.8,138.4,55.8,119.3,55.8z"/>
	<path class="st0" d="M131.2,28.1L126,40.2c16.9,0,58.7,0,58.7,0V28.2C184.7,28.2,150.2,28.1,131.2,28.1z"/>
	<polygon class="st0" points="142.9,1.1 140.9,5.9 137.5,13.6 184.7,13.6 184.7,1.1 	"/>
</g>
</svg>
